<mxfile>
    <diagram id="_YWQf0OL5vx4ewanuAuk" name="Page-1">
        <mxGraphModel dx="570" dy="486" grid="1" gridSize="10" guides="1" tooltips="1" connect="1" arrows="1" fold="1" page="1" pageScale="1" pageWidth="1200" pageHeight="1900" math="0" shadow="0">
            <root>
                <mxCell id="0"/>
                <mxCell id="1" parent="0"/>
                <mxCell id="Wkd50HSK-Yujyl3HCd2w-79" value="" style="rounded=0;whiteSpace=wrap;html=1;" parent="1" vertex="1">
                    <mxGeometry x="220" y="760" width="540" height="140" as="geometry"/>
                </mxCell>
                <mxCell id="Wkd50HSK-Yujyl3HCd2w-8" value="&lt;font style=&quot;font-size: 32px&quot;&gt;During exam scienario&lt;/font&gt;" style="text;html=1;strokeColor=none;fillColor=none;align=center;verticalAlign=middle;whiteSpace=wrap;rounded=0;" parent="1" vertex="1">
                    <mxGeometry x="400" y="70" width="390" height="30" as="geometry"/>
                </mxCell>
                <mxCell id="Wkd50HSK-Yujyl3HCd2w-11" value="&lt;font style=&quot;font-size: 12px&quot;&gt;sending video &amp;amp; usr.info &amp;amp; exam.info per x secs&amp;nbsp;&lt;/font&gt;" style="edgeStyle=orthogonalEdgeStyle;rounded=0;orthogonalLoop=1;jettySize=auto;html=1;endArrow=classic;endFill=1;" parent="1" source="Wkd50HSK-Yujyl3HCd2w-9" edge="1">
                    <mxGeometry relative="1" as="geometry">
                        <mxPoint x="580" y="270" as="targetPoint"/>
                    </mxGeometry>
                </mxCell>
                <mxCell id="Wkd50HSK-Yujyl3HCd2w-10" value="Webcam start recording" style="text;html=1;strokeColor=none;fillColor=none;align=center;verticalAlign=middle;whiteSpace=wrap;rounded=0;" parent="1" vertex="1">
                    <mxGeometry x="60" y="240" width="130" height="20" as="geometry"/>
                </mxCell>
                <mxCell id="Wkd50HSK-Yujyl3HCd2w-12" value="" style="group" parent="1" vertex="1" connectable="0">
                    <mxGeometry x="535" y="150" width="120" height="440" as="geometry"/>
                </mxCell>
                <mxCell id="Wkd50HSK-Yujyl3HCd2w-5" value="Web_server" style="rounded=0;whiteSpace=wrap;html=1;" parent="Wkd50HSK-Yujyl3HCd2w-12" vertex="1">
                    <mxGeometry width="120" height="60" as="geometry"/>
                </mxCell>
                <mxCell id="Wkd50HSK-Yujyl3HCd2w-44" value="store all&lt;br&gt;the video" style="edgeStyle=orthogonalEdgeStyle;rounded=0;orthogonalLoop=1;jettySize=auto;html=1;entryX=1;entryY=0.75;entryDx=0;entryDy=0;startArrow=none;startFill=0;endArrow=classic;endFill=1;" parent="Wkd50HSK-Yujyl3HCd2w-12" source="Wkd50HSK-Yujyl3HCd2w-20" target="Wkd50HSK-Yujyl3HCd2w-42" edge="1">
                    <mxGeometry relative="1" as="geometry">
                        <Array as="points">
                            <mxPoint x="125" y="140"/>
                            <mxPoint x="125" y="352"/>
                        </Array>
                    </mxGeometry>
                </mxCell>
                <mxCell id="Wkd50HSK-Yujyl3HCd2w-42" value="&lt;span style=&quot;color: rgba(0 , 0 , 0 , 0) ; font-family: monospace ; font-size: 0px&quot;&gt;%3CmxGraphModel%3E%3Croot%3E%3CmxCell%20id%3D%220%22%2F%3E%3CmxCell%20id%3D%221%22%20parent%3D%220%22%2F%3E%3CmxCell%20id%3D%222%22%20value%3D%22%22%20style%3D%22rounded%3D0%3BwhiteSpace%3Dwrap%3Bhtml%3D1%3B%22%20vertex%3D%221%22%20parent%3D%221%22%3E%3CmxGeometry%20x%3D%22240%22%20y%3D%22240%22%20width%3D%2240%22%20height%3D%2260%22%20as%3D%22geometry%22%2F%3E%3C%2FmxCell%3E%3C%2Froot%3E%3C%2FmxGraphModel%3E&lt;/span&gt;" style="rounded=0;whiteSpace=wrap;html=1;" parent="Wkd50HSK-Yujyl3HCd2w-12" vertex="1">
                    <mxGeometry x="55" y="300" width="40" height="70" as="geometry"/>
                </mxCell>
                <mxCell id="Wkd50HSK-Yujyl3HCd2w-43" style="edgeStyle=orthogonalEdgeStyle;rounded=0;orthogonalLoop=1;jettySize=auto;html=1;endArrow=none;endFill=0;dashed=1;" parent="Wkd50HSK-Yujyl3HCd2w-12" source="Wkd50HSK-Yujyl3HCd2w-5" target="Wkd50HSK-Yujyl3HCd2w-42" edge="1">
                    <mxGeometry relative="1" as="geometry">
                        <mxPoint x="600" y="430" as="targetPoint"/>
                        <mxPoint x="595" y="210" as="sourcePoint"/>
                    </mxGeometry>
                </mxCell>
                <mxCell id="Wkd50HSK-Yujyl3HCd2w-20" value="" style="rounded=0;whiteSpace=wrap;html=1;" parent="Wkd50HSK-Yujyl3HCd2w-12" vertex="1">
                    <mxGeometry x="45" y="90" width="40" height="140" as="geometry"/>
                </mxCell>
                <mxCell id="Wkd50HSK-Yujyl3HCd2w-49" value="" style="rounded=0;whiteSpace=wrap;html=1;" parent="Wkd50HSK-Yujyl3HCd2w-12" vertex="1">
                    <mxGeometry x="55" y="400" width="40" height="70" as="geometry"/>
                </mxCell>
                <mxCell id="Wkd50HSK-Yujyl3HCd2w-13" value="" style="group" parent="1" vertex="1" connectable="0">
                    <mxGeometry x="200" y="150" width="380" height="440" as="geometry"/>
                </mxCell>
                <mxCell id="Wkd50HSK-Yujyl3HCd2w-1" value="Client" style="rounded=0;whiteSpace=wrap;html=1;" parent="Wkd50HSK-Yujyl3HCd2w-13" vertex="1">
                    <mxGeometry width="120" height="60" as="geometry"/>
                </mxCell>
                <mxCell id="Wkd50HSK-Yujyl3HCd2w-29" value="release the storage" style="edgeStyle=orthogonalEdgeStyle;rounded=0;orthogonalLoop=1;jettySize=auto;html=1;startArrow=none;startFill=0;endArrow=classic;endFill=1;" parent="Wkd50HSK-Yujyl3HCd2w-13" edge="1">
                    <mxGeometry relative="1" as="geometry">
                        <mxPoint x="-180" y="210" as="targetPoint"/>
                        <mxPoint x="50" y="210" as="sourcePoint"/>
                    </mxGeometry>
                </mxCell>
                <mxCell id="Wkd50HSK-Yujyl3HCd2w-86" value="Normal HTTP Requests" style="rounded=0;whiteSpace=wrap;html=1;" parent="Wkd50HSK-Yujyl3HCd2w-13" vertex="1">
                    <mxGeometry x="140" y="140" width="170" height="30" as="geometry"/>
                </mxCell>
                <mxCell id="Wkd50HSK-Yujyl3HCd2w-87" value="Normal HTTP Requests" style="rounded=0;whiteSpace=wrap;html=1;" parent="Wkd50HSK-Yujyl3HCd2w-13" vertex="1">
                    <mxGeometry x="140" y="230" width="170" height="30" as="geometry"/>
                </mxCell>
                <mxCell id="Wkd50HSK-Yujyl3HCd2w-14" value="" style="group" parent="1" vertex="1" connectable="0">
                    <mxGeometry x="930" y="150" width="120" height="610" as="geometry"/>
                </mxCell>
                <mxCell id="Wkd50HSK-Yujyl3HCd2w-6" style="edgeStyle=orthogonalEdgeStyle;rounded=0;orthogonalLoop=1;jettySize=auto;html=1;endArrow=none;endFill=0;dashed=1;" parent="Wkd50HSK-Yujyl3HCd2w-14" edge="1">
                    <mxGeometry relative="1" as="geometry">
                        <mxPoint x="60" y="610" as="targetPoint"/>
                        <mxPoint x="60" y="471.3636363636364" as="sourcePoint"/>
                    </mxGeometry>
                </mxCell>
                <mxCell id="Wkd50HSK-Yujyl3HCd2w-7" value="ML_server" style="rounded=0;whiteSpace=wrap;html=1;" parent="Wkd50HSK-Yujyl3HCd2w-14" vertex="1">
                    <mxGeometry width="120" height="83.18181818181817" as="geometry"/>
                </mxCell>
                <mxCell id="Wkd50HSK-Yujyl3HCd2w-46" style="edgeStyle=orthogonalEdgeStyle;rounded=0;orthogonalLoop=1;jettySize=auto;html=1;endArrow=none;endFill=0;dashed=1;" parent="Wkd50HSK-Yujyl3HCd2w-14" source="Wkd50HSK-Yujyl3HCd2w-7" edge="1">
                    <mxGeometry relative="1" as="geometry">
                        <mxPoint x="60" y="374.3181818181818" as="targetPoint"/>
                        <mxPoint x="990" y="291.13636363636357" as="sourcePoint"/>
                    </mxGeometry>
                </mxCell>
                <mxCell id="Wkd50HSK-Yujyl3HCd2w-40" value="" style="rounded=0;whiteSpace=wrap;html=1;" parent="Wkd50HSK-Yujyl3HCd2w-14" vertex="1">
                    <mxGeometry x="40" y="110" width="40" height="375.23" as="geometry"/>
                </mxCell>
                <mxCell id="Wkd50HSK-Yujyl3HCd2w-19" style="edgeStyle=orthogonalEdgeStyle;rounded=0;orthogonalLoop=1;jettySize=auto;html=1;exitX=0;exitY=0.5;exitDx=0;exitDy=0;endArrow=none;endFill=0;startArrow=classic;startFill=1;" parent="1" source="Wkd50HSK-Yujyl3HCd2w-9" edge="1">
                    <mxGeometry relative="1" as="geometry">
                        <mxPoint x="50" y="269.7142857142858" as="targetPoint"/>
                    </mxGeometry>
                </mxCell>
                <mxCell id="Wkd50HSK-Yujyl3HCd2w-41" value="send one video and ignore the sencond one" style="edgeStyle=orthogonalEdgeStyle;rounded=0;orthogonalLoop=1;jettySize=auto;html=1;startArrow=none;startFill=0;endArrow=classic;endFill=1;" parent="1" source="Wkd50HSK-Yujyl3HCd2w-20" edge="1">
                    <mxGeometry relative="1" as="geometry">
                        <mxPoint x="970" y="275" as="targetPoint"/>
                        <Array as="points">
                            <mxPoint x="690" y="275"/>
                            <mxPoint x="690" y="275"/>
                        </Array>
                    </mxGeometry>
                </mxCell>
                <mxCell id="Wkd50HSK-Yujyl3HCd2w-27" style="edgeStyle=orthogonalEdgeStyle;rounded=0;orthogonalLoop=1;jettySize=auto;html=1;endArrow=none;endFill=0;dashed=1;" parent="1" source="Wkd50HSK-Yujyl3HCd2w-83" edge="1">
                    <mxGeometry relative="1" as="geometry">
                        <mxPoint x="260" y="990" as="targetPoint"/>
                        <mxPoint x="460" y="360" as="sourcePoint"/>
                    </mxGeometry>
                </mxCell>
                <mxCell id="Wkd50HSK-Yujyl3HCd2w-9" value="" style="rounded=0;whiteSpace=wrap;html=1;" parent="1" vertex="1">
                    <mxGeometry x="240" y="240" width="40" height="60" as="geometry"/>
                </mxCell>
                <mxCell id="Wkd50HSK-Yujyl3HCd2w-48" value="Normal HTTP Requests" style="rounded=0;whiteSpace=wrap;html=1;" parent="1" vertex="1">
                    <mxGeometry x="720" y="290" width="170" height="30" as="geometry"/>
                </mxCell>
                <mxCell id="Wkd50HSK-Yujyl3HCd2w-63" value="send result" style="endArrow=classic;html=1;exitX=-0.018;exitY=0.858;exitDx=0;exitDy=0;exitPerimeter=0;entryX=1;entryY=0.5;entryDx=0;entryDy=0;" parent="1" source="Wkd50HSK-Yujyl3HCd2w-40" target="Wkd50HSK-Yujyl3HCd2w-49" edge="1">
                    <mxGeometry width="50" height="50" relative="1" as="geometry">
                        <mxPoint x="800" y="490" as="sourcePoint"/>
                        <mxPoint x="850" y="440" as="targetPoint"/>
                    </mxGeometry>
                </mxCell>
                <mxCell id="Wkd50HSK-Yujyl3HCd2w-66" value="Normal HTTP Requests" style="rounded=0;whiteSpace=wrap;html=1;" parent="1" vertex="1">
                    <mxGeometry x="720" y="600" width="170" height="30" as="geometry"/>
                </mxCell>
                <mxCell id="Wkd50HSK-Yujyl3HCd2w-67" value="&lt;div style=&quot;text-align: left ; font-size: 41px&quot;&gt;&lt;font style=&quot;font-size: 41px&quot;&gt;&lt;b&gt;Wraning system&lt;/b&gt;&lt;/font&gt;&lt;/div&gt;&lt;font style=&quot;font-size: 41px&quot;&gt;&lt;div style=&quot;text-align: left&quot;&gt;&lt;span&gt;Pros:&lt;/span&gt;&lt;/div&gt;&lt;div style=&quot;text-align: left&quot;&gt;&lt;span&gt;- Per question feedback to stop the cheatign causes (only in a perfect condition)&lt;/span&gt;&lt;/div&gt;&lt;div style=&quot;text-align: left&quot;&gt;&lt;span&gt;Cons:&amp;nbsp;&lt;/span&gt;&lt;/div&gt;&lt;div style=&quot;text-align: left&quot;&gt;- in case of unstable network (the norm) warning will be misleading&lt;/div&gt;&lt;/font&gt;" style="rounded=0;whiteSpace=wrap;html=1;fillColor=#fff2cc;strokeColor=#d6b656;" parent="1" vertex="1">
                    <mxGeometry x="65" y="1070" width="1070" height="440" as="geometry"/>
                </mxCell>
                <mxCell id="Wkd50HSK-Yujyl3HCd2w-69" value="" style="rounded=0;whiteSpace=wrap;html=1;" parent="1" vertex="1">
                    <mxGeometry x="240" y="330" width="40" height="60" as="geometry"/>
                </mxCell>
                <mxCell id="Wkd50HSK-Yujyl3HCd2w-70" style="edgeStyle=orthogonalEdgeStyle;rounded=0;orthogonalLoop=1;jettySize=auto;html=1;endArrow=none;endFill=0;dashed=1;" parent="1" source="Wkd50HSK-Yujyl3HCd2w-1" target="Wkd50HSK-Yujyl3HCd2w-69" edge="1">
                    <mxGeometry relative="1" as="geometry">
                        <mxPoint x="260" y="580" as="targetPoint"/>
                        <mxPoint x="260" y="210" as="sourcePoint"/>
                    </mxGeometry>
                </mxCell>
                <mxCell id="Wkd50HSK-Yujyl3HCd2w-68" value="Ack" style="endArrow=classic;html=1;exitX=0.004;exitY=0.855;exitDx=0;exitDy=0;exitPerimeter=0;entryX=1;entryY=0.5;entryDx=0;entryDy=0;" parent="1" source="Wkd50HSK-Yujyl3HCd2w-20" target="Wkd50HSK-Yujyl3HCd2w-69" edge="1">
                    <mxGeometry width="50" height="50" relative="1" as="geometry">
                        <mxPoint x="580" y="330" as="sourcePoint"/>
                        <mxPoint x="290" y="360" as="targetPoint"/>
                    </mxGeometry>
                </mxCell>
                <mxCell id="Wkd50HSK-Yujyl3HCd2w-73" value="&lt;span style=&quot;color: rgba(0 , 0 , 0 , 0) ; font-family: monospace ; font-size: 0px&quot;&gt;%3CmxGraphModel%3E%3Croot%3E%3CmxCell%20id%3D%220%22%2F%3E%3CmxCell%20id%3D%221%22%20parent%3D%220%22%2F%3E%3CmxCell%20id%3D%222%22%20value%3D%22%22%20style%3D%22rounded%3D0%3BwhiteSpace%3Dwrap%3Bhtml%3D1%3B%22%20vertex%3D%221%22%20parent%3D%221%22%3E%3CmxGeometry%20x%3D%22240%22%20y%3D%22240%22%20width%3D%2240%22%20height%3D%2260%22%20as%3D%22geometry%22%2F%3E%3C%2FmxCell%3E%3C%2Froot%3E%3C%2FmxGraphModel%3E&lt;/span&gt;" style="rounded=0;whiteSpace=wrap;html=1;" parent="1" vertex="1">
                    <mxGeometry x="590" y="650" width="40" height="70" as="geometry"/>
                </mxCell>
                <mxCell id="Wkd50HSK-Yujyl3HCd2w-75" value="store the &lt;br&gt;question if &lt;br&gt;mismatch" style="edgeStyle=orthogonalEdgeStyle;rounded=0;orthogonalLoop=1;jettySize=auto;html=1;entryX=1.075;entryY=0.671;entryDx=0;entryDy=0;entryPerimeter=0;startArrow=none;startFill=0;endArrow=classic;endFill=1;" parent="1" source="Wkd50HSK-Yujyl3HCd2w-49" target="Wkd50HSK-Yujyl3HCd2w-73" edge="1">
                    <mxGeometry relative="1" as="geometry">
                        <Array as="points">
                            <mxPoint x="660" y="610"/>
                            <mxPoint x="660" y="697"/>
                        </Array>
                    </mxGeometry>
                </mxCell>
                <mxCell id="Wkd50HSK-Yujyl3HCd2w-77" style="edgeStyle=orthogonalEdgeStyle;rounded=0;orthogonalLoop=1;jettySize=auto;html=1;endArrow=none;endFill=0;dashed=1;" parent="1" source="Wkd50HSK-Yujyl3HCd2w-81" edge="1">
                    <mxGeometry relative="1" as="geometry">
                        <mxPoint x="610" y="990" as="targetPoint"/>
                        <mxPoint x="610" y="520" as="sourcePoint"/>
                    </mxGeometry>
                </mxCell>
                <mxCell id="Wkd50HSK-Yujyl3HCd2w-80" value="after exam (after last question)" style="rounded=0;whiteSpace=wrap;html=1;" parent="1" vertex="1">
                    <mxGeometry x="220" y="760" width="210" height="40" as="geometry"/>
                </mxCell>
                <mxCell id="Wkd50HSK-Yujyl3HCd2w-85" value="send a report of warnings&amp;nbsp;" style="edgeStyle=orthogonalEdgeStyle;rounded=0;orthogonalLoop=1;jettySize=auto;html=1;entryX=1;entryY=0.5;entryDx=0;entryDy=0;startArrow=none;startFill=0;endArrow=classic;endFill=1;" parent="1" source="Wkd50HSK-Yujyl3HCd2w-81" target="Wkd50HSK-Yujyl3HCd2w-83" edge="1">
                    <mxGeometry relative="1" as="geometry"/>
                </mxCell>
                <mxCell id="Wkd50HSK-Yujyl3HCd2w-81" value="&lt;span style=&quot;color: rgba(0 , 0 , 0 , 0) ; font-family: monospace ; font-size: 0px&quot;&gt;%3CmxGraphModel%3E%3Croot%3E%3CmxCell%20id%3D%220%22%2F%3E%3CmxCell%20id%3D%221%22%20parent%3D%220%22%2F%3E%3CmxCell%20id%3D%222%22%20value%3D%22%22%20style%3D%22rounded%3D0%3BwhiteSpace%3Dwrap%3Bhtml%3D1%3B%22%20vertex%3D%221%22%20parent%3D%221%22%3E%3CmxGeometry%20x%3D%22240%22%20y%3D%22240%22%20width%3D%2240%22%20height%3D%2260%22%20as%3D%22geometry%22%2F%3E%3C%2FmxCell%3E%3C%2Froot%3E%3C%2FmxGraphModel%3E&lt;/span&gt;" style="rounded=0;whiteSpace=wrap;html=1;" parent="1" vertex="1">
                    <mxGeometry x="590" y="820" width="40" height="70" as="geometry"/>
                </mxCell>
                <mxCell id="Wkd50HSK-Yujyl3HCd2w-82" style="edgeStyle=orthogonalEdgeStyle;rounded=0;orthogonalLoop=1;jettySize=auto;html=1;endArrow=none;endFill=0;dashed=1;" parent="1" source="Wkd50HSK-Yujyl3HCd2w-42" target="Wkd50HSK-Yujyl3HCd2w-81" edge="1">
                    <mxGeometry relative="1" as="geometry">
                        <mxPoint x="610.0000000000002" y="989.9999999999998" as="targetPoint"/>
                        <mxPoint x="610.0000000000002" y="520" as="sourcePoint"/>
                    </mxGeometry>
                </mxCell>
                <mxCell id="Wkd50HSK-Yujyl3HCd2w-83" value="&lt;span style=&quot;color: rgba(0 , 0 , 0 , 0) ; font-family: monospace ; font-size: 0px&quot;&gt;%3CmxGraphModel%3E%3Croot%3E%3CmxCell%20id%3D%220%22%2F%3E%3CmxCell%20id%3D%221%22%20parent%3D%220%22%2F%3E%3CmxCell%20id%3D%222%22%20value%3D%22%22%20style%3D%22rounded%3D0%3BwhiteSpace%3Dwrap%3Bhtml%3D1%3B%22%20vertex%3D%221%22%20parent%3D%221%22%3E%3CmxGeometry%20x%3D%22240%22%20y%3D%22240%22%20width%3D%2240%22%20height%3D%2260%22%20as%3D%22geometry%22%2F%3E%3C%2FmxCell%3E%3C%2Froot%3E%3C%2FmxGraphModel%3E&lt;/span&gt;" style="rounded=0;whiteSpace=wrap;html=1;" parent="1" vertex="1">
                    <mxGeometry x="240" y="820" width="40" height="70" as="geometry"/>
                </mxCell>
                <mxCell id="Wkd50HSK-Yujyl3HCd2w-84" style="edgeStyle=orthogonalEdgeStyle;rounded=0;orthogonalLoop=1;jettySize=auto;html=1;endArrow=none;endFill=0;dashed=1;" parent="1" source="Wkd50HSK-Yujyl3HCd2w-69" target="Wkd50HSK-Yujyl3HCd2w-83" edge="1">
                    <mxGeometry relative="1" as="geometry">
                        <mxPoint x="260" y="989.9999999999998" as="targetPoint"/>
                        <mxPoint x="260" y="390" as="sourcePoint"/>
                    </mxGeometry>
                </mxCell>
                <mxCell id="Wkd50HSK-Yujyl3HCd2w-89" value="&lt;font style=&quot;font-size: 24px&quot;&gt;Exam info:&lt;br&gt;ExamId: ExamId&lt;br&gt;last_chuck: true or false&lt;br&gt;&lt;/font&gt;" style="rounded=0;whiteSpace=wrap;html=1;align=left;" parent="1" vertex="1">
                    <mxGeometry x="280" y="1540" width="630" height="150" as="geometry"/>
                </mxCell>
                <mxCell id="Wkd50HSK-Yujyl3HCd2w-91" value="&lt;font style=&quot;font-size: 24px&quot;&gt;Recorded exam file name example:&lt;br&gt;onlyAdmin: /recordings/exam_id/usr_id.webm&lt;br&gt;&lt;/font&gt;" style="rounded=0;whiteSpace=wrap;html=1;align=left;" parent="1" vertex="1">
                    <mxGeometry x="280" y="1690" width="630" height="100" as="geometry"/>
                </mxCell>
            </root>
        </mxGraphModel>
    </diagram>
</mxfile>